# xmcd CD database file
#
# Track frame offsets:
#	150
#	12657
#	29974
#	44487
#	57979
#	71771
#	86758
#	101829
#	116668
#	131404
#	143494
#	156081
#	168103
#	178926
#	192402
#	206832
#	220037
#	231103
#	243992
#	253074
#	264878
#	277507
#	294191
#
# Disc length: 4103 seconds
#
# Revision: 0
# Processed by: cddbd v1.5.1PL0 Copyright (c) Steve Scherf et al.
# Submitted via: CDex 1.51
#
DISCID=55100517
DTITLE=Various Artist - Divas of Jazz and Blues CD3
DYEAR=2001
DGENRE=Jazz
TTITLE0=Ella Fitzgerald - Blue Lou
TTITLE1=June Cristy - Stan Kenton - On The Sunny Side Of The Street
TTITLE2=Ella Fitzgerald - Early Autumn
TTITLE3=June Cristy - Stan Kenton - I Never Thought I'd Sing The Blues
TTITLE4=Sarah Vaughan - Thinking Of You
TTITLE5=Pearl Bailey - Tired
TTITLE6=Sarah Vaughan - The Nearness Of You
TTITLE7=Pearl Bailey - That's Good Enough For Me
TTITLE8=Etta Jones - What Ev'ry Woman Knows
TTITLE9=Dinah Washington - Oo Wee Walkie Talkie
TTITLE10=Anita O'Day - I Want A Grown-Up Man
TTITLE11=Dinah Washington - Since I Feel For You
TTITLE12=Peggy Lee - You're Driving Me Crazy
TTITLE13=Billie Holiday - Moonglow
TTITLE14=Peggy Lee - A Woman Alone With The Blues
TTITLE15=Billie Holiday - You Go To My Head
TTITLE16=Ivy Anderson - Killin' Myself
TTITLE17=Sarah Vaughan - After Hours
TTITLE18=Billie Holiday - Blue Turning Grey Over You
TTITLE19=Sarah Vaughan - A Blues Serenade
TTITLE20=Ella Fitzgerald - There Never Was A Baby Like My Baby
TTITLE21=Billie Holiday - Autumn In New York
TTITLE22=Ella Fitzgerald - Preview
EXTD=YEAR: 2001
EXTT0=
EXTT1=
EXTT2=
EXTT3=
EXTT4=
EXTT5=
EXTT6=
EXTT7=
EXTT8=
EXTT9=
EXTT10=
EXTT11=
EXTT12=
EXTT13=
EXTT14=
EXTT15=
EXTT16=
EXTT17=
EXTT18=
EXTT19=
EXTT20=
EXTT21=
EXTT22=
PLAYORDER=
